<?xml version="1.0" encoding="utf-8"?>
<?xml-stylesheet type="text/xsl" href="rss1.xsl"?>
<rss version="2.0" xmlns:atom="http://www.w3.org/2005/Atom" xmlns:content="http://purl.org/rss/1.0/modules/content/" xmlns:dc="http://purl.org/dc/elements/1.1/" xmlns:media="http://search.yahoo.com/mrss/">
<channel>
 <title>Getty</title>
 <link>http://www.gettyimg.com/</link>
 <atom:link href="http://www.gettyimg.com/" rel="self" type="application/rss+xml" />

 
                <item>
                <title><![CDATA[【Requests】[REQ VID] - Ricky Martin Cut - Global Citizen Live Festival 2021]]></title>
                <link><![CDATA[https://sharemania.us/threads/ricky-martin-cut-global-citizen-live-festival-2021.228612/]]></link>
                <description><![CDATA[<article>
<blockquote class="messageText SelectQuoteContainer ugc baseHtml">
<img src="https://i.ibb.co/2Wyx579/AA-1.png" class="bbCodeImage LbImage" alt="[​IMG]" data-url="https://i.ibb.co/2Wyx579/AA-1.png" style=""> <br>
<br>
Please <a href="https://sharemania.us/members/175817/" class="username" data-user="175817, @ily380">@ily380</a>, re-upload!!!!!<br>
<a href="https://sharemania.us/members/705/" class="username" data-user="705, @SCANDAL">@SCANDAL</a>
<div class="messageTextEndMarker">&nbsp;</div>
</blockquote>
</article>]]></description>
                <author><![CDATA[mvlmoraes]]></author>
                </item>

                
                <item>
                <title><![CDATA[【Cinema Center】MOVIE - Crimson.Force.2005.1080p.HULU.WEB-DL.AAC2.0.H.264-Samuel]]></title>
                <link><![CDATA[https://sharemania.us/threads/crimson-force-2005-1080p-hulu-web-dl-aac2-0-h-264-samuel.228613/]]></link>
                <description><![CDATA[<article>
<blockquote class="messageText SelectQuoteContainer ugc baseHtml">
<div style="text-align: center"><b><span style="font-size: 26px">Crimson Force</span></b><br>
<img src="https://i.imgur.com/lnQmtEd.jpg" class="bbCodeImage LbImage" alt="[​IMG]" data-url="https://i.imgur.com/lnQmtEd.jpg" style=""><br>
<b><a href="https://i.imgur.com/D3ihTA7.jpg" target="_blank" class="externalLink" rel="nofollow">Alternate Artwork 1</a></b> | <b><a href="https://i.imgur.com/zaaWpcz.jpg" target="_blank" class="externalLink" rel="nofollow">Alternate Artwork 2</a></b> | <b><a href="https://i.imgur.com/TZq04db.jpg" target="_blank" class="externalLink" rel="nofollow">Poster</a></b><br>
<br>
<b>Starring:</b> C. Thomas Howell, Steven Williams, David Chokachi • <b>Director:</b> David Flores<br>
TV14 • Science Fiction • Movie • 2005 • 1h 26m<br>
<br>
<div class="bbCodeBlock bbCodeQuote">
<aside>
<blockquote class="quoteContainer"><div class="quote"><b><span style="font-size: 15px"><span style="font-family: 'Arial'">Description</span></span></b><br>
Astronauts on Mars must repair their damaged spaceship as extraterrestrials wage a civil war.</div><div class="quoteExpand">Click to expand...</div></blockquote>
</aside>
</div>
<div class="bbCodeBlock bbCodeQuote">
<aside>
<blockquote class="quoteContainer"><div class="quote"><b><span style="font-size: 15px"><span style="font-family: 'Arial'">More Information</span></span></b><br>
<b>Starring:</b> C. Thomas Howell, Steven Williams, David Chokachi, Tony Amendola, Taylor Mac Bowyer<br>
<b>Director:</b> David Flores<br>
<br>
TV14 • Science Fiction • Movie (2005)</div><div class="quoteExpand">Click to expand...</div></blockquote>
</aside>
</div>
<div class="bbCodeBlock bbCodeQuote">
<aside>
<blockquote class="quoteContainer"><div class="quote"><b><span style="font-size: 15px">Source</span></b><br>
<img src="https://i.imgur.com/4uiLEFv.png" class="bbCodeImage LbImage" alt="[​IMG]" data-url="https://i.imgur.com/4uiLEFv.png" style=""></div><div class="quoteExpand">Click to expand...</div></blockquote>
</aside>
</div>
<div class="bbCodeBlock bbCodeQuote">
<aside>
<blockquote class="quoteContainer"><div class="quote"><b><span style="font-size: 15px">Release Name</span></b><br>
Crimson.Force.2005.1080p.HULU.WEB-DL.AAC2.0.H.264-Samuel</div><div class="quoteExpand">Click to expand...</div></blockquote>
</aside>
</div>
<div class="ToggleTriggerAnchor bbCodeSpoilerContainer">
<button type="button" class="button bbCodeSpoilerButton ToggleTrigger Tooltip JsOnly" data-target="> .SpoilerTarget"><span>Spoiler: <span class="SpoilerTitle">Media Information</span></span></button>
<div class="SpoilerTarget bbCodeSpoilerText">General<br>
Complete name : Crimson.Force.2005.1080p.HULU.WEB-DL.AAC2.0.H.264-Samuel.mkv<br>
Format : Matroska<br>
Format version : Version 4<br>
File size : 3.70 GiB<br>
Duration : 1 h 28 min<br>
Overall bit rate : 5 985 kb/s<br>
Frame rate : 23.976 FPS<br>
Encoded date : 2023-06-25 14:39:01 UTC<br>
Writing application : mkvmerge v72.0.0 ('Minuano (Six-eight)') 64-bit<br>
Writing library : libebml v1.4.4 + libmatroska v1.7.1<br>
<br>
Video<br>
ID : 1<br>
Format : AVC<br>
Format/Info : Advanced Video Codec<br>
Format profile : High@L4<br>
Format settings : CABAC / 4 Ref Frames<br>
Format settings, CABAC : Yes<br>
Format settings, Reference frames : 4 frames<br>
Codec ID : V_MPEG4/ISO/AVC<br>
Duration : 1 h 28 min<br>
Bit rate : 5 919 kb/s<br>
Width : 1 920 pixels<br>
Height : 1 080 pixels<br>
Display aspect ratio : 16:9<br>
Frame rate mode : Constant<br>
Frame rate : 23.976 (24000/1001) FPS<br>
Color space : YUV<br>
Chroma subsampling : 4:2:0<br>
Bit depth : 8 bits<br>
Scan type : Progressive<br>
Bits/(Pixel*Frame) : 0.119<br>
Stream size : 3.66 GiB (99%)<br>
Default : Yes<br>
Forced : No<br>
<br>
Audio<br>
ID : 2<br>
Format : AAC LC SBR<br>
Format/Info : Advanced Audio Codec Low Complexity with Spectral Band Replication<br>
Commercial name : HE-AAC<br>
Format settings : Explicit<br>
Codec ID : A_AAC-2<br>
Duration : 1 h 28 min<br>
Bit rate : 64.0 kb/s<br>
Channel(s) : 2 channels<br>
Channel layout : L R<br>
Sampling rate : 48.0 kHz<br>
Frame rate : 23.438 FPS (2048 SPF)<br>
Compression mode : Lossy<br>
Stream size : 40.5 MiB (1%)<br>
Language : English<br>
Default : Yes<br>
Forced : No<br>
<br>
Text<br>
ID : 3<br>
Format : UTF-8<br>
Codec ID : S_TEXT/UTF8<br>
Codec ID/Info : UTF-8 Plain Text<br>
Duration : 1 h 25 min<br>
Bit rate : 60 b/s<br>
Frame rate : 0.251 FPS<br>
Count of elements : 1293<br>
Stream size : 38.0 KiB (0%)<br>
Language : English<br>
Default : No<br>
Forced : No</div>
</div><br>
<b>Screenshots</b><br>
<img src="https://i.imgur.com/yMZ5LY9.png" class="bbCodeImage LbImage" alt="[​IMG]" data-url="https://i.imgur.com/yMZ5LY9.png" style=""><br>
<br>
<b>Download</b><br>
<div class="bbCodeBlock bbCodeVfcHH HiddenContent">
<div class="attribution type">Hidden Content:</div>
<blockquote>You must reply before you can see the hidden data contained here.</blockquote>
</div></div>
<div class="messageTextEndMarker">&nbsp;</div>
</blockquote>
</article>]]></description>
                <author><![CDATA[Samuel]]></author>
                </item>

                
                <item>
                <title><![CDATA[【HD Live Performances】HDTV - Kylie Minogue - Radio 2 in the Park 2023 HDTV H264 1080i DD2.0-ilya2129]]></title>
                <link><![CDATA[https://sharemania.us/threads/kylie-minogue-radio-2-in-the-park-2023-hdtv-h264-1080i-dd2-0-ilya2129.228611/]]></link>
                <description><![CDATA[<article>
<blockquote class="messageText SelectQuoteContainer ugc baseHtml">
<div style="text-align: center"><img src="https://i122.fastpic.org/big/2023/0917/07/dd8ef02142af2897adaf32ff3b59c207.png?r=1" class="bbCodeImage LbImage" alt="[​IMG]" data-url="https://i122.fastpic.org/big/2023/0917/07/dd8ef02142af2897adaf32ff3b59c207.png?r=1" style=""><br>
<br>
<a href="https://postimg.cc/hf71YZbG" target="_blank" class="externalLink" rel="nofollow"><img src="https://i.postimg.cc/hf71YZbG/vlcsnap-2023-09-17-23h32m01s277.png" class="bbCodeImage LbImage" alt="[​IMG]" data-url="https://i.postimg.cc/hf71YZbG/vlcsnap-2023-09-17-23h32m01s277.png"></a> <a href="https://postimg.cc/t19dYq01" target="_blank" class="externalLink" rel="nofollow"><img src="https://i.postimg.cc/t19dYq01/vlcsnap-2023-09-17-23h32m03s545.png" class="bbCodeImage LbImage" alt="[​IMG]" data-url="https://i.postimg.cc/t19dYq01/vlcsnap-2023-09-17-23h32m03s545.png"></a> <a href="https://postimg.cc/mPYNLcnf" target="_blank" class="externalLink" rel="nofollow"><img src="https://i.postimg.cc/mPYNLcnf/vlcsnap-2023-09-17-23h32m08s384.png" class="bbCodeImage LbImage" alt="[​IMG]" data-url="https://i.postimg.cc/mPYNLcnf/vlcsnap-2023-09-17-23h32m08s384.png"></a> <a href="https://postimg.cc/FfGySMmT" target="_blank" class="externalLink" rel="nofollow"><img src="https://i.postimg.cc/FfGySMmT/vlcsnap-2023-09-17-23h32m10s714.png" class="bbCodeImage LbImage" alt="[​IMG]" data-url="https://i.postimg.cc/FfGySMmT/vlcsnap-2023-09-17-23h32m10s714.png"></a> <a href="https://postimg.cc/JsV5C3P5" target="_blank" class="externalLink" rel="nofollow"><img src="https://i.postimg.cc/JsV5C3P5/vlcsnap-2023-09-17-23h32m12s797.png" class="bbCodeImage LbImage" alt="[​IMG]" data-url="https://i.postimg.cc/JsV5C3P5/vlcsnap-2023-09-17-23h32m12s797.png"></a> <br>
<br>
​</div><br>
<div class="bbCodeBlock bbCodeCode">
<div class="type">Code:</div>
<pre>General
ID                                       : 1 (0x1)
Complete name                            : D:\Kylie Minogue - Radio 2 in the Park 2023 HDTV H264 1080i DD2.0-ilya2129.ts
Format                                   : MPEG-TS
File size                                : 3.37 GiB
Duration                                 : 1 h 5 min
Overall bit rate mode                    : Variable
Overall bit rate                         : 7 308 kb/s
Frame rate                               : 25.000 FPS

Video
ID                                       : 302 (0x12E)
Menu ID                                  : 1 (0x1)
Format                                   : AVC
Format/Info                              : Advanced Video Codec
Format profile                           : High@L4
Format settings                          : CABAC / 4 Ref Frames
Format settings, CABAC                   : Yes
Format settings, Reference frames        : 4 frames
Format settings, GOP                     : M=8, N=24
Codec ID                                 : 27
Duration                                 : 1 h 5 min
Bit rate                                 : 6 559 kb/s
Width                                    : 1 920 pixels
Height                                   : 1 080 pixels
Display aspect ratio                     : 16:9
Frame rate                               : 25.000 FPS
Standard                                 : Component
Color space                              : YUV
Chroma subsampling                       : 4:2:0
Bit depth                                : 8 bits
Scan type                                : MBAFF
Scan type, store method                  : Interleaved fields
Scan order                               : Top Field First
Bits/(Pixel*Frame)                       : 0.127
Stream size                              : 3.02 GiB (90%)
Color range                              : Limited
Color primaries                          : BT.709
Transfer characteristics                 : BT.709
Matrix coefficients                      : BT.709

Audio #1
ID                                       : 303 (0x12F)
Menu ID                                  : 1 (0x1)
Format                                   : AC-3
Format/Info                              : Audio Coding 3
Commercial name                          : Dolby Digital
Codec ID                                 : 6
Duration                                 : 1 h 5 min
Bit rate mode                            : Constant
Bit rate                                 : 192 kb/s
Channel(s)                               : 2 channels
Channel layout                           : L R
Sampling rate                            : 48.0 kHz
Frame rate                               : 31.250 FPS (1536 SPF)
Compression mode                         : Lossy
Delay relative to video                  : -120 ms
Stream size                              : 90.6 MiB (3%)
Language                                 : English
Service kind                             : Complete Main

Audio #2
ID                                       : 304 (0x130)
Menu ID                                  : 1 (0x1)
Format                                   : AC-3
Format/Info                              : Audio Coding 3
Commercial name                          : Dolby Digital
Codec ID                                 : 6
Duration                                 : 1 h 5 min
Bit rate mode                            : Constant
Bit rate                                 : 192 kb/s
Channel(s)                               : 2 channels
Channel layout                           : L R
Sampling rate                            : 48.0 kHz
Frame rate                               : 31.250 FPS (1536 SPF)
Compression mode                         : Lossy
Delay relative to video                  : -120 ms
Stream size                              : 90.6 MiB (3%)
Language                                 : English
Service kind                             : Complete Main

</pre>
</div>
<div class="bbCodeBlock bbCodeVfcHH HiddenContent">
<div class="attribution type">Hidden Content:</div>
<blockquote>You must reply before you can see the hidden data contained here.</blockquote>
</div>
<div class="messageTextEndMarker">&nbsp;</div>
</blockquote>
</article>]]></description>
                <author><![CDATA[ilya2129]]></author>
                </item>

                </channel></rss>